<svg width="50" height="44" viewBox="0 0 50 44" fill="none" xmlns="http://www.w3.org/2000/svg">
<path d="M45.9614 4.08098C43.3432 1.46279 39.877 0.0317999 36.1776 0.0317999C32.4783 0.0317999 29.0015 1.47339 26.3833 4.09157L25.0159 5.45897L23.6273 4.07038C21.0091 1.45219 17.5217 0 13.8224 0C10.1336 0 6.65682 1.44159 4.04923 4.04917C1.43105 6.66736 -0.0105419 10.1441 5.80422e-05 13.8435C5.80422e-05 17.5429 1.45225 21.0091 4.07043 23.6273L23.9771 43.5339C24.2527 43.8095 24.6237 43.9579 24.9841 43.9579C25.3445 43.9579 25.7155 43.8201 25.9911 43.5445L45.9402 23.6697C48.5584 21.0515 50 17.5747 50 13.8753C50.0106 10.1759 48.5796 6.69916 45.9614 4.08098ZM43.9262 21.6451L24.9841 40.513L6.08442 21.6133C4.00683 19.5357 2.86204 16.7797 2.86204 13.8435C2.86204 10.9073 3.99623 8.15135 6.07382 6.08436C8.14081 4.01738 10.8968 2.87258 13.8224 2.87258C16.7586 2.87258 19.5251 4.01738 21.6027 6.09496L23.9983 8.49055C24.5601 9.05234 25.4611 9.05234 26.0229 8.49055L28.3973 6.11616C30.4749 4.03857 33.2415 2.89378 36.167 2.89378C39.0926 2.89378 41.8486 4.03858 43.9262 6.10556C46.0038 8.18315 47.138 10.9391 47.138 13.8753C47.1486 16.8115 46.0038 19.5675 43.9262 21.6451Z" fill="black"/>
</svg>
